# xmcd
# 
# Track frame offsets:
#     150
#     14287
#     58322
#     68943
#     82895
#     94389
#     110486
#     115982
#     136430
#     145668
#     160164
#     181267
#     220327
#     234701
#     247724
#     258589
#     270825
#     284593
# 
# Disc length: 3918
# 
# Revision: 3
# Processed by: cddbd v1.5.2PL0 Copyright (c) Steve Scherf et al.
# Submitted via: BonkEnc v1.0.15
# 
DISCID=060f4c12
DTITLE=Elvis Presley zzzc - Dinner At Eight Vegas Hilton 13 dec 75
DYEAR=2002
DGENRE=Rock and Roll
TTITLE0=C.C. Rider
TTITLE1=I Got A Woman/Amen
TTITLE2=Love Me
TTITLE3=Help Me Make It Through The Night
TTITLE4=Trying To Get To You
TTITLE5=And I Love You So
TTITLE6=All Shook Up
TTITLE7=Teddy Bear/Don't Be Cruel
TTITLE8=Wooden Heart
TTITLE9=You Gave Me A Mountain
TTITLE10=Polk Salad Annie
TTITLE11=Introductions
TTITLE12=How Great Thou Art
TTITLE13=Softly As I Leave You
TTITLE14=America
TTITLE15=Mystery Train/Tigerman
TTITLE16=Blue Christmas
TTITLE17=Can't Help Falling In Love
EXTD=YEAR: 1975
EXTT0=
EXTT1=
EXTT2=
EXTT3=
EXTT4=
EXTT5=
EXTT6=
EXTT7=
EXTT8=
EXTT9=
EXTT10=
EXTT11=
EXTT12=
EXTT13=
EXTT14=
EXTT15=
EXTT16=
EXTT17=
PLAYORDER=
